inDegrees=no
num_controls=7
num_derivatives=13
num_iterations=146
num_multipliers=7
num_parameters=0
num_slacks=7
num_states=26
objective=0.516795
objective_accelerations=0.039793
objective_balance=0.002217
objective_effort=0.043831
objective_height=0.419325
objective_ligament=0.011630
solver_duration=1909.219659
status=Solve_Succeeded
success=true
DataType=double
version=3
OpenSimVersion=4.5
endheader
time	/jointset/ground_pelvis/pelvis_tilt/value	/jointset/ground_pelvis/pelvis_tx/value	/jointset/ground_pelvis/pelvis_ty/value	/jointset/hip_l/hip_flexion_l/value	/jointset/hip_l/hip_adduction_l/value	/jointset/hip_l/hip_rotation_l/value	/jointset/back/lumbar_extension/value	/jointset/patellofemoral_l/patellar_flexion_l/value	/jointset/knee_l/knee_flexion_l/value	/jointset/knee_l/knee_adduction_l/value	/jointset/knee_l/knee_rotation_l/value	/jointset/ankle_l/ankle_angle_l/value	/jointset/subtalar_l/subtalar_angle_l/value	/jointset/ground_pelvis/pelvis_tilt/speed	/jointset/ground_pelvis/pelvis_tx/speed	/jointset/ground_pelvis/pelvis_ty/speed	/jointset/hip_l/hip_flexion_l/speed	/jointset/hip_l/hip_adduction_l/speed	/jointset/hip_l/hip_rotation_l/speed	/jointset/back/lumbar_extension/speed	/jointset/patellofemoral_l/patellar_flexion_l/speed	/jointset/knee_l/knee_flexion_l/speed	/jointset/knee_l/knee_adduction_l/speed	/jointset/knee_l/knee_rotation_l/speed	/jointset/ankle_l/ankle_angle_l/speed	/jointset/subtalar_l/subtalar_angle_l/speed	/forceset/tau_hip_flexion_l	/forceset/tau_hip_adduction_l	/forceset/tau_hip_rotation_l	/forceset/tau_knee_flexion_l	/forceset/tau_ankle_angle_l	/forceset/tau_subtalar_angle_l	/forceset/tau_lumbar_extension	lambda_cid13_p0	lambda_cid13_p1	lambda_cid13_p2	lambda_cid13_p3	lambda_cid13_p4	lambda_cid13_p5	lambda_cid14_p0	/jointset/ground_pelvis/pelvis_tilt/accel	/jointset/ground_pelvis/pelvis_tx/accel	/jointset/ground_pelvis/pelvis_ty/accel	/jointset/hip_l/hip_flexion_l/accel	/jointset/hip_l/hip_adduction_l/accel	/jointset/hip_l/hip_rotation_l/accel	/jointset/back/lumbar_extension/accel	/jointset/patellofemoral_l/patellar_flexion_l/accel	/jointset/knee_l/knee_flexion_l/accel	/jointset/knee_l/knee_adduction_l/accel	/jointset/knee_l/knee_rotation_l/accel	/jointset/ankle_l/ankle_angle_l/accel	/jointset/subtalar_l/subtalar_angle_l/accel	gamma_cid13_p0	gamma_cid13_p1	gamma_cid13_p2	gamma_cid13_p3	gamma_cid13_p4	gamma_cid13_p5	gamma_cid14_p0
0	-0.03681727673752835	0.05667504412147772	0.9203416844076093	0.3085816938045678	-0.2956384680633347	-0.3015659310541627	-0.3879492264334186	0.2499269421184906	0.2499269421184919	-0.1745328752489036	-0.1744921262900612	-0.0008036623358878681	0.000439151696705194	0	0	0	0	0	0	0	0	0	0	0	0	0	0.06200477300549207	-0.0355988022232282	-0.01732851038698318	-0.2213687464567604	0.1496148408301137	-0.01093147003933146	0.008708352549605686	4.129374772669273	1.116668243329298	2.689124183470043	24.16911313758346	-627.8141192612953	-72.70637215664895	-23.19558050839171	-1.304077339343852	-2.251579412273448	-0.8546559666724808	8.854516078444181	-0.5738450247163059	2.632406830552613	-7.102284755724519	7.55218283563346	7.552182835631863	1.229016091825613	-0.08694602987662058	0.4389156658229899	-0.4753925833378529	1.616315637515756e-08	9.811165975729992e-08	3.861672480090329e-08	-2.623097737156519e-08	1.51948375194239e-07	2.958314646391014e-08	1.126038822526311e-09
0.01	-0.03687877654341602	0.05656485600466975	0.9203000091546235	0.3090125072691977	-0.2956671087280793	-0.3014338538463164	-0.3883008240533906	0.250296586995838	0.2502965869958384	-0.1744741469830172	-0.1744935106053803	-0.0007818191547390975	0.000415394188182479	-0.01223458233104148	-0.02181726105306869	-0.0082873230930329	0.08559596972106584	-0.005671689941805473	0.02629811156226854	-0.06964658045133713	0.07355655034243704	0.07355655034243208	0.01173202328151883	-0.0002397373695213394	0.004500381085986262	-0.004646181778367844	0.05636863515895013	-0.04273139701389012	-0.01688514085047354	-0.2191984638639397	0.1477459064224347	-0.001695865246921288	0.01484130679882126	3.761768622469235	-2.749721014988359	3.213846424427956	21.75169431223318	-631.2880533592026	-80.27180633672545	-23.19985116266717	-1.173348624071023	-2.113750351637141	-0.8085809653213095	8.327125255056348	-0.5553842039229139	2.610912098886098	-6.794903158439466	7.201527139266971	7.201527139267509	1.143269874983905	0.01308527480054113	0.4753655752331775	-0.4434534940931374	-7.177631996716621e-09	1.031543812102682e-07	7.773340041478497e-08	3.838937154944007e-09	3.103236273167508e-08	-1.018505888896199e-09	-9.287631118469735e-10
0.02	-0.03706066216143022	0.0562431050973685	0.9201768985737667	0.3102822779982631	-0.2957507769372441	-0.3010423157668833	-0.3893286991715963	0.2513906245777533	0.2513906245777513	-0.1742985035985801	-0.1744961777213359	-0.0007110189136810922	0.0003483303580747101	-0.02407716242555632	-0.04231255809865476	-0.01628706557417597	0.1677914528868759	-0.01100550888402088	0.05189217431742239	-0.135255499646726	0.1448785409135996	0.1448785409136087	0.02338302370979329	-0.0002565601274248468	0.009791411981842042	-0.008661264317010977	0.05073249731240775	-0.04986399180455103	-0.01644177131396491	-0.2170281812711215	0.1458769720147539	0.007539739545489373	0.02097426104803703	3.452499399861523	-6.624181043725647	3.737406394226668	19.291128164414	-633.8569448893658	-87.76283162044476	-23.21234192788407	-1.225676892038566	-1.987186610776887	-0.7971398442945145	8.174418767393014	-0.5062708247982963	2.491597069129683	-6.294752504534874	7.105270881378565	7.105270881380767	1.212811521176729	-0.04236310755304793	0.5970456277969335	-0.349172735392901	-3.05184203685908e-08	1.081971026632365e-07	1.168500760286667e-07	3.39088516814532e-08	-8.988364973088888e-08	-3.162015824170254e-08	-2.983565046220259e-09
0.03	-0.03735919283072899	0.05572186304221456	0.919974844790011	0.3123590108059088	-0.2958864514050458	-0.3003988375889414	-0.3909952096507287	0.2531874162289767	0.2531874162289741	-0.1740074103197404	-0.1744987346196518	-0.0005848093143588915	0.000243401548040516	-0.03555824423588765	-0.06182962508227111	-0.02411015878929416	0.2471545717135552	-0.01611485197707524	0.07667848346526246	-0.1976721223290517	0.2141638731661347	0.2141638731661378	0.03473724629957438	-0.0002616129903151096	0.01543521664857963	-0.01231359792982453	0.04518227521976564	-0.04498609158463764	-0.01580674445702864	-0.2126560009666251	0.1425176296219263	0.006082981657022515	0.02589470983049594	2.292049538166747	-5.842260108576436	3.674354115006799	19.19954331063991	-634.9330018434759	-85.37856829330394	-23.23248673988077	-1.098717231178712	-1.918025661315277	-0.7728826672459292	7.75717316330923	-0.5111151380581774	2.453387512219944	-6.158946072543085	6.792777577447316	6.792777577445048	1.081998178767566	0.01942194953865614	0.5457559125817449	-0.3716592392474356	-4.381065483455955e-08	9.255122603012099e-08	1.606021905747667e-07	4.470537005112656e-08	-1.475586154676115e-07	-5.665447593789793e-08	-9.489818117944976e-09
